<svg width="327" height="205" viewBox="0 0 327 205" fill="none" xmlns="http://www.w3.org/2000/svg">
<mask id="mask0_1_1226" style="mask-type:luminance" maskUnits="userSpaceOnUse" x="0" y="0" width="284" height="202">
<path d="M0.175446 0.768326H283.957V201.643H0.175446V0.768326Z" fill="white"/>
</mask>
<g mask="url(#mask0_1_1226)">
<g opacity="0.5">
<path d="M266.411 137.757C262.338 140.771 257.09 143.951 257.075 149.38C257.068 151.238 257.734 153.009 258.41 154.709C263.213 166.783 269.137 178.424 272.131 191.196C272.927 194.589 273.477 198.106 273.739 201.643H10.6551C4.09266 195.274 -1.61575 186.543 0.701094 177.51C3.75575 165.6 18.9309 161.269 21.4194 149.197C23.8653 137.333 12.425 127.014 12.1062 114.848C11.9015 107.026 16.5608 99.7739 22.5773 95.684C28.5928 91.5941 35.779 90.1952 42.8159 89.6109C52.3701 88.8166 62.0149 89.3806 71.4411 91.2849C82.0903 93.4354 92.748 97.3057 103.495 95.8748C107.743 95.3087 111.988 93.8597 115.38 90.9693C119.867 87.1469 122.45 81.2029 124.276 75.2653C129.307 58.9183 129.951 40.6597 138.276 26.0613C149.042 7.18326 171.011 -1.20666 191.041 1.15923C211.07 3.52619 229.349 15.0027 245.32 28.6138C260.921 41.9114 275.429 58.3244 281.441 79.1014C287.455 99.8784 282.778 125.643 266.411 137.757Z" fill="#FCFAF1"/>
</g>
</g>
<path d="M278.809 96.3005C271.346 102.127 261.554 106.591 252.442 109.864C249.822 99.9448 247.518 89.9652 245.805 79.8854C252.926 78.4162 260.704 75.7485 268.034 70.7545C279.172 63.1653 293.995 35.136 297.704 27.888C297.891 27.5074 298.078 27.1289 298.264 26.7493L298.237 26.7387C298.237 26.7387 301.111 19.1282 301.496 17.9799C302.462 15.0969 303.643 7.96507 303.643 7.96507C303.643 7.96507 305.748 7.27098 306.104 12.0945C306.46 16.9201 307.292 15.486 307.292 15.486C307.292 15.486 316.042 2.32489 318.546 2.88038C319.482 3.08828 318.526 6.09816 317.038 7.8254C315.548 9.55157 314.008 12.2544 314.008 12.2544C314.008 12.2544 322.539 2.82281 324.831 3.93592C324.831 3.93592 325.967 4.66199 323.237 7.46396C319.452 11.347 316.969 14.8868 316.969 14.8868C316.969 14.8868 325.616 7.3648 326.74 7.96507C328.607 8.96197 319.844 16.6301 318.536 19.2859C318.536 19.2859 325.011 13.1798 325.377 14.8911C325.727 16.5266 318.33 22.9686 314.975 31.5941C314.727 32.4386 314.414 33.4077 314.036 34.4888L314.044 34.4846C314.044 34.4846 305.191 75.7006 278.809 96.3005Z" fill="#FEBF9C"/>
<path d="M306.865 16.1467C307.947 16.9858 308.885 17.9763 309.716 19.0617C310.132 19.6055 310.512 20.1834 310.849 20.8028C311.163 21.4308 311.495 22.078 311.564 22.9181L310.495 22.513C311.043 22.0492 311.571 21.7507 312.194 21.5459C312.8 21.3412 313.449 21.24 314.083 21.2997C314.714 21.3508 315.333 21.5076 315.87 21.7976C316.417 22.0673 316.888 22.4469 317.296 22.8648C316.741 22.6591 316.217 22.4522 315.673 22.3541C315.141 22.2166 314.599 22.2283 314.089 22.255C313.575 22.3019 313.079 22.4416 312.615 22.6431C312.166 22.8478 311.688 23.1367 311.371 23.4278L310.471 24.2541L310.302 23.0216C310.232 22.5237 310.021 21.9181 309.741 21.3551C309.471 20.7826 309.171 20.2057 308.844 19.6364C308.198 18.4913 307.51 17.3494 306.865 16.1467Z" fill="black"/>
<path d="M213.8 49.5232C213.8 56.0675 209.048 61.3729 203.186 61.3729C197.325 61.3729 192.573 56.0675 192.573 49.5232C192.573 42.9789 197.325 37.6735 203.186 37.6735C209.048 37.6735 213.8 42.9789 213.8 49.5232Z" fill="black"/>
<path d="M195.252 54.1601C195.252 54.1601 210.491 41.6313 200.795 14.1415C194.486 -3.74394 157.333 47.1531 195.252 54.1601Z" fill="black"/>
<path d="M157.273 23.205C158.973 12.461 169.672 -5.5034 188.681 5.55413C194.659 9.031 197.209 15.3749 198.424 21.9618C199.271 26.5593 197.642 71.7084 197.642 71.7084C196.034 89.8007 168.86 94.0943 167.926 72.0656L169.045 56.9832C155.274 52.5585 155.363 35.2669 157.273 23.205Z" fill="#FEBF9C"/>
<path d="M169.045 56.9829C169.045 56.9829 176.824 59.5844 191.497 50.4642C191.497 50.4642 183.25 62.5389 168.322 67.4743L169.045 56.9829Z" fill="#B16D69"/>
<path d="M193.941 38.0496C193.941 42.4242 190.394 45.9704 186.02 45.9704C181.646 45.9704 178.1 42.4242 178.1 38.0496C178.1 33.675 181.646 30.1288 186.02 30.1288C190.394 30.1288 193.941 33.675 193.941 38.0496Z" fill="#FEB08E"/>
<path d="M165.394 32.6041C165.394 28.2295 161.848 24.6834 157.473 24.6834C157.332 24.6834 157.191 24.6876 157.051 24.6951C156.36 29.6316 156.033 35.2728 156.817 40.495C157.033 40.5132 157.252 40.5249 157.473 40.5249C161.848 40.5249 165.394 36.9787 165.394 32.6041Z" fill="#FEB08E"/>
<path d="M207.138 28.584C207.9 31.7175 205.976 34.8745 202.842 35.6358C199.708 36.396 196.551 34.4726 195.79 31.339C195.03 28.2055 196.953 25.0484 200.087 24.2872C203.221 23.5259 206.378 25.4504 207.138 28.584Z" fill="#FEBF9C"/>
<path d="M198.758 31.5952C198.814 30.9779 199.07 30.4202 199.435 29.9298C199.797 29.4351 200.307 29.0171 200.948 28.7698C201.593 28.5309 202.38 28.5832 202.958 28.9105C203.562 29.2058 203.946 29.7368 204.172 30.2944C203.574 30.1132 203.094 29.8967 202.627 29.852C202.171 29.7965 201.776 29.8136 201.375 29.9735C200.554 30.2646 199.755 30.9224 198.758 31.5952Z" fill="black"/>
<path d="M168.151 37.67C168.889 37.9878 169.488 38.3631 170.099 38.6072C170.703 38.8631 171.262 39.0294 171.791 39.023C172.32 39.0241 172.856 38.8695 173.44 38.6008C174.021 38.3257 174.606 37.9376 175.285 37.524C175.155 38.3108 174.768 39.0305 174.171 39.6073C173.593 40.1927 172.721 40.6245 171.787 40.617C170.852 40.6181 170.008 40.1969 169.419 39.6446C168.799 39.1105 168.392 38.4196 168.151 37.67Z" fill="black"/>
<path d="M170.16 20.5865C170.331 21.2604 170.25 21.9896 170.072 22.6645C169.896 23.3469 169.6 23.9802 169.259 24.5805C168.562 25.7768 167.688 26.8195 166.641 27.7258L166.54 26.8952C167.674 27.6885 168.789 28.5126 169.825 29.4722C168.489 29.0169 167.234 28.4263 165.998 27.8036L165.438 27.5221L165.897 26.972C166.3 26.49 166.702 25.9676 167.101 25.4686C167.491 24.9569 167.894 24.4579 168.259 23.9365C169.005 22.8927 169.715 21.8787 170.16 20.5865Z" fill="black"/>
<path d="M176.577 22.3487C176.544 23.3648 176.57 24.4182 176.722 25.3724C176.868 26.3299 177.259 27.1935 177.789 27.3182C178.255 27.5261 179.069 27.0506 179.742 26.3629C180.417 25.6795 181.058 24.8468 181.634 24.0183L181.65 23.9938C181.811 23.7635 182.127 23.707 182.358 23.8669C182.555 24.0045 182.625 24.2572 182.54 24.4704C182.126 25.5217 181.601 26.4887 180.842 27.3779C180.46 27.8204 180.021 28.2384 179.44 28.5731C178.878 28.8941 178.031 29.1073 177.268 28.8194C176.516 28.5571 175.975 27.9132 175.726 27.3129C175.465 26.703 175.363 26.1049 175.33 25.5249C175.263 24.3627 175.427 23.2741 175.732 22.193C175.797 21.9649 176.035 21.8316 176.264 21.8955C176.458 21.951 176.583 22.1301 176.577 22.3242V22.3487Z" fill="black"/>
<path d="M160.369 20.5163C160.336 21.478 160.332 22.4653 160.41 23.3822C160.458 23.8396 160.524 24.2885 160.655 24.6499C160.786 25.0316 160.965 25.2075 161.06 25.2033C161.122 25.2384 161.389 25.1755 161.695 24.9101C162.002 24.6712 162.295 24.3215 162.581 23.9643C163.139 23.2351 163.679 22.4098 164.181 21.5974L164.193 21.5782C164.342 21.3383 164.655 21.2647 164.894 21.4129C165.097 21.5377 165.18 21.7818 165.112 21.9993C164.795 22.9984 164.386 23.9345 163.798 24.8322C163.507 25.2822 163.168 25.714 162.716 26.1202C162.483 26.3164 162.217 26.5083 161.871 26.6501C161.531 26.7898 161.067 26.8655 160.635 26.7354C160.209 26.6181 159.842 26.326 159.624 26.02C159.401 25.7129 159.274 25.4026 159.193 25.1084C159.034 24.5166 158.997 23.9665 159.009 23.4302C159.031 22.3586 159.222 21.3543 159.526 20.3563C159.595 20.1282 159.836 20.0002 160.064 20.0695C160.255 20.1271 160.377 20.3062 160.37 20.496L160.369 20.5163Z" fill="black"/>
<path d="M183.446 18.1204C183.33 18.8721 182.152 19.3113 180.814 19.1024C179.475 18.8913 178.485 18.1108 178.6 17.3591C178.717 16.6064 179.895 16.1661 181.234 16.3761C182.573 16.5872 183.562 17.3666 183.446 18.1204Z" fill="black"/>
<path d="M164.869 15.3106C165.131 16.0303 164.312 16.9718 163.038 17.4132C161.764 17.8556 160.52 17.6307 160.257 16.911C159.995 16.1945 160.815 15.252 162.088 14.8095C163.361 14.3681 164.607 14.592 164.869 15.3106Z" fill="black"/>
<path d="M161.38 12.0266C161.38 12.0266 172.981 14.5343 188.681 5.55373C188.681 5.55373 183.008 36.0907 198.237 25.1163C198.237 25.1163 200.352 23.4957 202.624 24.1706L203.224 24.3646C203.224 24.3646 202.878 6.53676 190.118 2.13124C177.358 -2.27429 168.341 -0.257045 161.38 12.0266Z" fill="black"/>
<path d="M83.7391 100.434L89.5446 82.4063L102.989 86.9888L102.377 102.572L83.7391 100.434Z" fill="#FEBF9C"/>
<path d="M294.02 32.7269C294.02 32.7269 277.769 65.5978 263.833 72.1037C249.929 78.5937 213.921 68.7804 204.084 69.2079L204.081 69.1909L197.751 69.0523C195.414 72.8 186.959 75.281 180.84 74.7138C172.106 73.9056 169.132 70.191 168.286 67.1875L157.468 66.3793L157.467 66.3825C152.184 65.923 143.304 66.9423 135.104 75.5262C131.979 78.7973 117.313 95.7456 100.223 117.915L104.497 102.765L81.2129 99.9261C62.7155 135.171 70.8889 162.56 81.8921 162.56C100.867 162.56 130.58 134.295 146.889 117.113L150.99 161.399L213.899 163.547L208.384 110.535C217.383 111.693 263.11 116.976 279.054 107.113C296.772 96.1518 312.684 48.7711 312.684 48.7711L294.02 32.7269Z" fill="#FC3E00"/>
<path d="M95.3585 134.142C94.9565 134.041 96.3905 127.044 98.959 118.632C101.52 110.213 104.231 103.608 104.622 103.748C105.028 103.892 102.974 110.698 100.425 119.079C97.8672 127.454 95.7764 134.25 95.3585 134.142Z" fill="black"/>
<path d="M100.274 67.9452C101.373 66.7905 104.597 63.2689 104.608 61.6952C104.626 58.9114 99.8945 63.9129 97.8389 66.2159C98.7035 66.7682 99.5341 67.3354 100.274 67.9452Z" fill="#F89B73"/>
<path d="M80.4129 45.0787C81.0814 43.6159 83.0187 43.2949 84.1201 44.4667C89.1984 49.8744 100.591 63.4791 106.314 72.6921C114.431 85.7573 119.808 94.3221 119.808 94.3221L143.57 114.843C143.57 114.843 133.522 120.345 124.606 112.367C117.86 106.333 114.719 95.6484 114.719 95.6484C114.719 95.6484 94.0496 58.516 81.0153 47.7431C80.2296 47.0938 79.9897 46.0052 80.4129 45.0787Z" fill="#60462C"/>
<path d="M89.8198 91.8144C88.3633 85.9567 88.2578 76.4644 88.1863 72.9203C88.1245 69.7889 90.1567 68.4317 91.466 67.6778C96.8801 64.5582 107.877 62.2989 108.287 63.8353C108.624 65.0977 99.1287 68.1726 99.1287 68.1726C99.1287 68.1726 110.943 66.2278 108.618 68.9178C107.378 70.3529 100.737 70.9116 100.737 70.9116C100.737 70.9116 107.948 71.674 107.397 72.7327C106.419 74.6081 100.487 74.348 100.487 74.348C100.487 74.348 103.34 76.748 104.17 82.8168C104.773 87.2244 95.7233 96.0067 95.7233 96.0067L89.8198 91.8144Z" fill="#FEBF9C"/>
<path d="M94.8186 75.6168C94.7493 75.3503 96.0341 74.8087 97.6973 74.6786C98.5194 74.6018 99.2615 74.6327 99.7146 74.5954C100.165 74.5848 100.352 74.4046 100.5 74.4547C100.559 74.4835 100.587 74.5976 100.509 74.7778C100.431 74.9654 100.203 75.1584 99.9161 75.2885C99.335 75.5475 98.5887 75.6168 97.7869 75.6957C96.1897 75.8194 94.889 75.8973 94.8186 75.6168Z" fill="black"/>
<path d="M258.426 87.6605C257.975 87.6722 257.703 84.318 255.982 80.6737C254.317 77.0039 251.934 74.6262 252.235 74.2893C252.366 74.1411 253.156 74.5484 254.19 75.5197C255.222 76.4857 256.455 78.0551 257.373 80.0308C258.284 82.0075 258.685 83.9619 258.752 85.3735C258.825 86.7915 258.624 87.6584 258.426 87.6605Z" fill="black"/>
<path d="M265.891 80.5745C265.567 80.8763 263.419 78.9902 260.427 77.2523C257.452 75.4845 254.759 74.526 254.864 74.0953C254.936 73.6986 257.996 74.0334 261.203 75.9312C264.421 77.8088 266.203 80.3186 265.891 80.5745Z" fill="black"/>
<path d="M215.98 164.876C216.092 164.776 216.891 165.536 218.425 166.792C219.961 168.037 222.271 169.776 225.458 171.334C227.011 172.086 228.878 172.805 230.63 172.395C231.438 172.198 232.266 171.64 232.72 170.892C233.195 170.148 233.191 169.309 232.693 168.615C232.197 167.927 231.187 167.424 230.072 167.13C228.973 166.832 227.656 166.69 226.374 166.542C223.784 166.278 221.067 166.24 218.293 166.482L218.267 164.31C220.272 164.423 222.387 164.457 224.532 164.392C226.123 164.346 227.691 164.243 229.234 164.099C230.77 163.939 232.318 163.78 233.705 163.487C235.09 163.184 236.355 162.7 237.248 161.884C238.088 161.157 238.554 159.934 238.471 158.889C238.386 157.82 237.789 157.143 236.728 156.852C236.207 156.704 235.612 156.63 234.993 156.6C234.378 156.566 233.772 156.53 233.174 156.552C230.782 156.572 228.561 156.996 226.607 157.607C222.686 158.838 219.848 160.753 218.073 162.235C216.284 163.723 215.424 164.722 215.283 164.609C215.185 164.539 215.817 163.35 217.494 161.606C219.155 159.872 221.995 157.643 226.111 156.133C228.162 155.386 230.529 154.836 233.119 154.73C233.767 154.686 234.425 154.704 235.097 154.724C235.76 154.739 236.476 154.794 237.236 154.987C237.987 155.181 238.819 155.555 239.441 156.255C240.06 156.939 240.418 157.837 240.487 158.706C240.638 160.444 239.996 162.192 238.661 163.437C237.384 164.626 235.741 165.228 234.173 165.588C232.581 165.939 231.038 166.1 229.447 166.275C227.858 166.432 226.239 166.541 224.598 166.589C222.385 166.656 220.203 166.614 218.136 166.484L218.111 164.312C221.032 164.076 223.888 164.148 226.602 164.468C227.963 164.649 229.258 164.799 230.622 165.188C231.936 165.585 233.336 166.188 234.277 167.509C234.729 168.167 234.971 168.963 234.955 169.763C234.946 170.566 234.646 171.296 234.258 171.886C233.46 173.072 232.272 173.798 230.998 174.072C229.748 174.318 228.564 174.14 227.536 173.83C226.505 173.515 225.606 173.071 224.788 172.621C221.542 170.813 219.298 168.829 217.891 167.372C216.487 165.902 215.884 164.96 215.98 164.876Z" fill="black"/>
<path d="M150.99 158.457L146.222 198.454H239.843L213.899 160.605L150.99 158.457Z" fill="#AF8543"/>
<path d="M150.99 158.457L214.08 160.412L216.591 165.049L191.669 165.435L204.033 198.471L146.222 198.454L150.99 158.457Z" fill="#FCFAF1"/>
<path d="M279.152 205.313H6.29669V198.547H279.152V205.313Z" fill="#EFC941"/>
<path d="M90.2298 191.652H202.039V198.751H90.2298V191.652Z" fill="black"/>
<path d="M152.417 53.5943C152.458 53.6285 152.284 53.9494 151.921 54.5262C151.728 54.8226 151.5 55.1723 151.235 55.5785C150.976 56.0018 150.716 56.5136 150.398 57.0712C149.188 59.3219 147.667 62.7743 147.016 67.3046C146.409 71.7954 146.56 77.411 148.817 82.9968C149.919 85.7913 151.555 88.4814 153.686 90.972C155.81 93.4594 158.399 95.9895 160.003 99.3544C161.592 102.669 162.347 106.301 161.962 109.81C161.759 111.554 161.235 113.273 160.292 114.743C159.362 116.232 157.959 117.337 156.56 118.094C155.151 118.866 153.73 119.4 152.42 119.977C151.113 120.547 149.887 121.187 148.739 121.877C146.446 123.256 144.48 124.831 142.855 126.423C141.242 128.006 140.054 129.71 139.616 131.402C139.137 133.086 139.547 134.631 140.161 135.689C140.777 136.766 141.605 137.336 142.199 137.598C142.804 137.856 143.172 137.886 143.164 137.956C143.166 137.989 142.789 138.07 142.095 137.889C141.415 137.703 140.423 137.153 139.655 136.006C138.894 134.901 138.325 133.137 138.782 131.202C139.195 129.274 140.443 127.372 142.082 125.665C143.723 123.958 145.714 122.281 148.073 120.796C149.251 120.055 150.521 119.363 151.87 118.746C153.212 118.132 154.593 117.585 155.87 116.862C157.147 116.143 158.283 115.216 159.057 113.957C159.842 112.71 160.298 111.207 160.471 109.639C160.803 106.494 160.1 103.084 158.625 100.026C157.163 96.9395 154.727 94.5224 152.543 91.9433C150.344 89.3471 148.612 86.4471 147.502 83.5108C145.21 77.6147 145.177 71.7634 145.947 67.135C146.76 62.4651 148.489 58.9733 149.884 56.7695C150.249 56.2225 150.555 55.7267 150.858 55.3237C151.172 54.9441 151.444 54.6179 151.673 54.3407C152.122 53.8172 152.375 53.5613 152.417 53.5943Z" fill="black"/>
<path d="M100.813 154.294C100.979 154.119 102.092 156.651 103.709 160.958L104.071 161.923L103.031 161.747C99.8772 161.215 95.9952 160.099 91.9575 158.355C90.7559 157.838 89.3954 157.119 88.6651 155.785C88.2994 155.138 88.1149 154.334 88.2695 153.564C88.4145 152.795 88.8932 152.124 89.4882 151.718C90.0852 151.292 90.7793 151.159 91.4041 151.139L91.87 151.145L92.2507 151.178C92.5076 151.2 92.7614 151.221 93.0109 151.242C94.0557 151.318 95.0366 151.605 95.8374 151.894C97.4558 152.486 98.6948 153.065 99.5499 153.487C100.459 153.935 100.899 154.231 100.813 154.294C100.728 154.358 100.193 154.272 99.3377 154.043C98.3312 153.75 97.0486 153.376 95.5143 152.927C94.704 152.711 93.8756 152.527 92.9288 152.51C92.6814 152.501 92.4298 152.495 92.175 152.486L91.7805 152.472L91.4585 152.484C91.0395 152.518 90.6141 152.621 90.3038 152.871C89.6534 153.34 89.4818 154.242 89.9733 155.049C90.4413 155.89 91.4265 156.468 92.5663 156.948C96.4867 158.647 100.283 159.858 103.243 160.558L102.565 161.347C101.341 157.266 100.649 154.469 100.813 154.294Z" fill="black"/>
<path d="M174.351 154.294C174.517 154.469 173.824 157.267 172.601 161.347L171.921 160.558C174.878 159.858 178.668 158.649 182.583 156.955C182.884 156.831 183.163 156.703 183.408 156.572C183.673 156.454 183.902 156.299 184.128 156.146C184.574 155.835 184.96 155.471 185.184 155.062C185.683 154.26 185.52 153.356 184.877 152.88C184.229 152.379 183.305 152.437 182.334 152.576C181.387 152.707 180.495 152.903 179.683 153.091C176.434 153.875 174.429 154.504 174.351 154.294C174.281 154.109 176.144 153.12 179.393 152.047C180.21 151.786 181.113 151.522 182.126 151.322C182.649 151.236 183.13 151.119 183.791 151.139C184.417 151.163 185.107 151.31 185.702 151.735C186.295 152.147 186.766 152.823 186.901 153.594C187.049 154.364 186.857 155.164 186.487 155.808C185.752 157.137 184.387 157.845 183.191 158.361C179.16 160.102 175.284 161.215 172.135 161.747L171.094 161.923L171.455 160.958C173.073 156.652 174.187 154.119 174.351 154.294Z" fill="black"/>
<path d="M162.271 191.748H114.076C106.873 191.748 101.034 185.907 101.034 178.704V147.306H175.313V178.704C175.313 185.907 169.474 191.748 162.271 191.748Z" fill="#8CC1C3"/>
<path d="M175.649 148.221H100.45V146.666H175.649V148.221Z" fill="#D6F5F6"/>
<path d="M35.6789 129.384H66.4248V188.859H35.6789V129.384Z" fill="#A9E2D9"/>
<mask id="mask1_1_1226" style="mask-type:luminance" maskUnits="userSpaceOnUse" x="37" y="148" width="28" height="40">
<path d="M37.7442 148.199H64.3586V187.362H37.7442V148.199Z" fill="white"/>
</mask>
<g mask="url(#mask1_1_1226)">
<g opacity="0.600006">
<path d="M64.3588 187.362H37.7455V148.199H64.3588V187.362Z" fill="#C2F6EC"/>
</g>
</g>
<mask id="mask2_1_1226" style="mask-type:luminance" maskUnits="userSpaceOnUse" x="38" y="137" width="26" height="32">
<path d="M38.6451 137.167H63.19V168.817H38.6451V137.167Z" fill="white"/>
</mask>
<g mask="url(#mask2_1_1226)">
<g opacity="0.600006">
<path d="M39.3389 168.123L62.4967 137.861" stroke="#C2F6EC" stroke-width="1.73467" stroke-miterlimit="10" stroke-linecap="round"/>
</g>
</g>
<mask id="mask3_1_1226" style="mask-type:luminance" maskUnits="userSpaceOnUse" x="38" y="133" width="23" height="30">
<path d="M38.7336 133.921H60.3838V162.501H38.7336V133.921Z" fill="white"/>
</mask>
<g mask="url(#mask3_1_1226)">
<g opacity="0.600006">
<path d="M39.4268 161.808L59.6899 134.614" stroke="#C2F6EC" stroke-width="1.73467" stroke-miterlimit="10" stroke-linecap="round"/>
</g>
</g>
<path d="M33.683 143.674C33.683 143.674 29.657 135.59 28.0983 128.784C27.1867 124.806 23.0509 107.14 21.5859 109.295C20.121 111.452 23.1767 121.565 24.6182 126.17C25.7793 129.881 29.6922 140.965 29.6922 140.965C29.6922 140.965 18.2861 118.557 14.8198 118.093C11.3536 117.629 17.2188 126.187 18.3948 127.929C22.3195 133.749 24.9338 137.529 28.3819 141.965C28.3819 141.965 4.18773 118.433 1.66298 121.917C-0.862843 125.401 10.8643 130.3 16.3349 134.343C20.5272 137.441 29.5909 144.959 29.5909 144.959C29.5909 144.959 28.2966 142.784 23.6138 139.717C16.5652 135.102 4.28689 129.5 3.56294 131.875C2.57991 135.098 9.45261 136.193 15.3263 138.452C28.4064 143.479 29.9183 148.053 29.9183 148.053L33.683 143.674Z" fill="#145442"/>
<path d="M38.5861 143.979C38.5861 143.979 35.2457 139.257 29.7271 143.164C24.2095 147.069 27.7141 154.053 29.4126 155.972C31.11 157.889 46.5368 173.838 48.6009 177.735C50.6651 181.633 57.5911 192.018 59.8365 191.204C62.0819 190.392 60.3739 187.689 59.4559 180.914C58.5389 174.138 55.3936 166.702 51.3037 161.686C47.2149 156.669 38.5861 143.979 38.5861 143.979Z" fill="#FB7F00"/>
<path d="M40.7913 147.903C40.0439 148.015 39.2731 148.482 38.6376 148.875C37.9904 149.277 37.3731 149.725 36.7483 150.159C35.5734 150.973 34.3163 151.768 32.8663 151.945C32.459 151.994 32.1061 152.257 32.1061 152.704C32.1061 153.077 32.4569 153.514 32.8663 153.464C34.5125 153.264 35.9199 152.556 37.2686 151.621C37.8924 151.188 38.5022 150.732 39.1377 150.317C39.4714 150.099 39.8136 149.898 40.1591 149.698C40.5291 149.484 40.9385 149.329 41.2957 149.099C41.9524 148.677 41.5057 147.795 40.7913 147.903Z" fill="#D75D08"/>
<path d="M45.8735 154.661C45.5174 154.616 45.1485 154.825 44.8425 154.988C44.5493 155.143 44.2646 155.308 43.9799 155.479C43.4457 155.796 42.9127 156.112 42.3849 156.44C41.2867 157.121 40.1885 157.801 39.0903 158.482C38.2566 159 39.0253 160.325 39.8612 159.801C40.9711 159.105 42.0821 158.41 43.192 157.714C43.7187 157.383 44.239 157.042 44.7614 156.702C45.3073 156.346 46.1272 155.935 46.3479 155.285C46.462 154.949 46.1678 154.697 45.8735 154.661Z" fill="#D75D08"/>
<path d="M51.4975 162.764C50.4399 163.369 49.4547 164.098 48.4482 164.784C47.9407 165.129 47.4332 165.475 46.9278 165.822C46.4139 166.175 45.8339 166.509 45.3936 166.951C44.7944 167.555 45.5503 168.451 46.2721 168.09C46.7903 167.832 47.2552 167.428 47.7296 167.095C48.2467 166.732 48.766 166.371 49.2852 166.01C50.3055 165.301 51.3643 164.624 52.2908 163.792C52.8527 163.289 52.1319 162.402 51.4975 162.764Z" fill="#D75D08"/>
<path d="M56.8271 172.881C56.3377 172.992 55.892 173.341 55.4698 173.602C55.0796 173.841 54.6968 174.093 54.313 174.343C53.9398 174.585 53.5677 174.825 53.1956 175.068C52.7488 175.358 52.2637 175.624 51.8596 175.971C51.5814 176.21 51.5931 176.67 51.8021 176.942C52.0366 177.245 52.4194 177.296 52.7552 177.132C53.1849 176.922 53.5837 176.598 53.9824 176.332L55.1243 175.572C55.4954 175.324 55.8664 175.078 56.231 174.822C56.682 174.507 57.1821 174.219 57.5105 173.77C57.6502 173.579 57.6 173.269 57.4636 173.098C57.3079 172.903 57.0712 172.825 56.8271 172.881Z" fill="#D75D08"/>
<path d="M69.4564 191.513C69.4564 191.513 89.9615 171.007 76.2918 169.298C62.621 167.59 55.7856 180.121 55.7856 180.121C55.7856 180.121 70.5951 160.185 57.4947 157.906C44.3933 155.627 46.6717 193.792 46.6717 193.792L69.4564 191.513Z" fill="#A0B57F"/>
<path d="M46.9938 189.804C46.9938 189.804 53.2588 152.779 37.88 153.919C22.5001 155.058 27.057 171.576 27.057 171.576C27.057 171.576 21.9307 149.362 12.2475 155.058C2.56435 160.754 16.8045 178.412 16.8045 178.412C16.8045 178.412 -2.56193 169.298 0.285886 177.273C3.1337 185.247 19.6523 193.792 19.6523 193.792L46.9938 189.804Z" fill="#00693D"/>
<path d="M20.5695 199.228H64.6408C70.9793 199.228 76.1184 194.09 76.1184 187.75H9.09192C9.09192 194.09 14.231 199.228 20.5695 199.228Z" fill="#E7CCC4"/>
<path d="M31.1935 190.062C31.1935 185.634 34.7834 176.865 39.2124 176.865C43.6414 176.865 47.2313 185.634 47.2313 190.062C47.2313 194.491 43.6414 198.081 39.2124 198.081C34.7834 198.081 31.1935 194.491 31.1935 190.062Z" fill="#F0E5E0"/>
<path d="M50.23 190.062C50.23 185.634 53.8209 176.865 58.2488 176.865C62.6778 176.865 66.2677 185.634 66.2677 190.062C66.2677 194.491 62.6778 198.081 58.2488 198.081C53.8209 198.081 50.23 194.491 50.23 190.062Z" fill="#F0E5E0"/>
<path d="M69.2668 190.062C69.2668 185.634 72.8577 176.865 77.2857 176.865C81.7146 176.865 85.3045 185.634 85.3045 190.062C85.3045 194.491 81.7146 198.081 77.2857 198.081C72.8577 198.081 69.2668 194.491 69.2668 190.062Z" fill="#F0E5E0"/>
<path d="M85.9075 187.473H30.6529C29.2626 187.473 28.1345 188.6 28.1345 189.991C28.1345 190.858 28.1217 191.725 28.1196 192.592C28.1185 193.009 28.1207 193.425 28.1281 193.841C28.1431 194.739 29.1783 194.425 29.7647 194.425C30.477 194.425 31.0943 194.914 31.2585 195.607C31.7617 197.729 33.6574 199.228 35.8378 199.228H42.6369C44.8184 199.228 46.713 197.729 47.2162 195.607C47.3804 194.914 47.9988 194.425 48.71 194.425H48.807C49.5192 194.425 50.1376 194.914 50.3008 195.607C50.804 197.729 52.6997 199.228 54.8801 199.228H61.6792C63.8606 199.228 65.7553 197.729 66.2585 195.607C66.4227 194.914 67.0411 194.425 67.7523 194.425H67.8493C68.5604 194.425 69.1788 194.914 69.343 195.607C69.8463 197.729 71.7409 199.228 73.9223 199.228H80.7215C82.9029 199.228 84.7976 197.729 85.3008 195.607C85.465 194.914 86.0834 194.425 86.7945 194.425C87.1869 194.425 87.7243 194.434 88.1134 194.427C88.2936 194.423 88.4258 194.435 88.4216 194.221C88.4152 193.772 88.4258 192.801 88.4258 192.327C88.4248 191.548 88.4248 190.769 88.4248 189.991C88.4248 188.6 87.2978 187.473 85.9075 187.473Z" fill="#494A90"/>
<path d="M30.8254 192.996C49.2141 192.55 67.6103 192.936 85.999 192.488C86.5438 192.475 86.5448 191.627 85.999 191.641C67.6103 192.088 49.2141 191.702 30.8254 192.15C30.2816 192.163 30.2795 193.01 30.8254 192.996Z" fill="white"/>
</svg>
