<svg width="16" height="24" viewBox="0 0 16 24" fill="none" xmlns="http://www.w3.org/2000/svg">
<g opacity="0.5" clip-path="url(#clip0_1_1380)">
<path d="M8.7647 22.9096V1.30439C8.7647 -0.148313 6.5121 -0.15072 6.5121 1.30439V22.9096C6.5121 24.3623 8.7647 24.3647 8.7647 22.9096Z" fill="#FBBF24"/>
<path d="M2.12143 8.62424C2.86793 7.42358 3.70193 6.28996 4.64325 5.23527C5.13396 4.68546 5.64806 4.15665 6.18405 3.65108C6.41707 3.43128 6.65423 3.21584 6.89532 3.00496C7.12931 2.80028 7.62293 2.531 7.78009 2.26567L7.82705 2.2306C7.30245 2.06419 7.14914 2.07211 7.36712 2.25438C7.45827 2.42545 7.70109 2.58337 7.84033 2.72054C8.12952 3.00542 8.4187 3.29029 8.70788 3.57517C9.28625 4.14491 9.86461 4.71466 10.443 5.28442C11.6523 6.47571 12.8616 7.66701 14.0709 8.8583C15.1057 9.87766 16.6997 8.28243 15.6637 7.26189C14.2967 5.91521 12.9297 4.56853 11.5626 3.22185C10.8791 2.54851 10.1956 1.87517 9.51203 1.20183C8.83269 0.53261 8.14498 -0.269967 7.09208 0.0885279C6.31911 0.351713 5.6129 1.12439 5.01508 1.66379C4.3967 2.22172 3.80514 2.80941 3.2435 3.42468C2.09932 4.67812 1.07262 6.04324 0.176368 7.48476C-0.592496 8.72138 1.35554 9.85608 2.12143 8.62424Z" fill="#FBBF24"/>
</g>
<defs>
<clipPath id="clip0_1_1380">
<rect width="16" height="24" fill="white"/>
</clipPath>
</defs>
</svg>
